#N canvas 65 53 1215 747 10;
#X obj 317 83 inlet~;
#X text 357 83 ~signal_in~;
#X text 307 49 unsig~;
#X obj 318 377 outlet;
#X text 365 378 float-out;
#X text 362 50 grab every metrotime one sample;
#X obj 318 309 snapshot~;
#X obj 336 239 metro 300;
#X obj 336 148 loadbang;
#X obj 336 173 t b b;
#X obj 368 195 f \$1;
#X text 218 492 IEM KUG;
#X text 202 480 musil;
#X text 232 480 @;
#X text 238 480 iem.at;
#X text 201 502 Graz \, Austria;
#X obj 367 216 moses 0.01;
#X obj 475 84 inlet;
#X obj 475 105 t b f;
#X obj 333 112 s~ \$0-in;
#X obj 601 227 r~ \$0-in;
#X obj 519 156 r~ \$0-in;
#X obj 601 308 unsig~;
#X obj 702 309 unsig~;
#X obj 741 263 loadbang;
#X obj 640 262 loadbang;
#X obj 613 443 sel 0 1;
#X obj 636 471 bng 15 250 50 0 empty empty empty 17 7 0 10 -262144
-1 -1;
#X msg 636 497 stop;
#X obj 613 471 bng 15 250 50 0 empty empty empty 17 7 0 10 -262144
-1 -1;
#X obj 613 545 s \$0-onoff;
#X obj 205 222 r \$0-onoff;
#X text 149 532 Edited to unsigdelta by Stefan Riedel \, 2018;
#X text 153 469 (c) unsig~.pd Thomas Musil 2000 - 2010;
#X obj 601 348 -;
#X obj 601 377 abs;
#X obj 601 403 < 0.005;
#X text 661 404 only if incoming value really changes \, the metro
object is turned on again and fires values to the outlet;
#X obj 519 183 delwrite~ \$0-del 100;
#X obj 704 185 delread~ \$0-del 100;
#X msg 640 286 50;
#X msg 741 287 50, f 7;
#X connect 0 0 19 0;
#X connect 0 0 6 0;
#X connect 6 0 3 0;
#X connect 7 0 6 0;
#X connect 8 0 9 0;
#X connect 9 0 7 0;
#X connect 9 1 10 0;
#X connect 10 0 16 0;
#X connect 16 1 7 1;
#X connect 17 0 18 0;
#X connect 18 0 9 0;
#X connect 18 1 10 1;
#X connect 20 0 22 0;
#X connect 21 0 38 0;
#X connect 22 0 34 0;
#X connect 23 0 34 1;
#X connect 24 0 41 0;
#X connect 25 0 40 0;
#X connect 26 0 29 0;
#X connect 26 1 27 0;
#X connect 27 0 28 0;
#X connect 28 0 30 0;
#X connect 29 0 30 0;
#X connect 31 0 7 0;
#X connect 34 0 35 0;
#X connect 35 0 36 0;
#X connect 36 0 26 0;
#X connect 39 0 23 0;
#X connect 40 0 22 1;
#X connect 41 0 23 1;
